name rise31.4854peak64.571fall78.6902.mot
datacolumns 19
datarows 30
range 19.11160200000000 19.15992500000000
endheader
time	ground_force1_vx	ground_force1_vy	ground_force1_vz	ground_force1_px	ground_force1_py	ground_force1_pz	ground_force2_vx	ground_force2_vy	ground_force2_vz	ground_force2_px	ground_force2_py	ground_force2_pz	ground_torque1_x	ground_torque1_y	ground_torque1_z	ground_torque2_x	ground_torque2_y	ground_torque2_z	
19.11160200000000	70.30182300000000	761.81570999999997	54.31530300000000	0.33392700000000	0.00000000000000	0.10448200000000	-0.51139200000000	11.20519000000000	1.13054700000000	0.00000000000000	0.00000000000000	0.00000000000000	0.00000000000000	21.17104800000000	0.00000000000000	0.00000000000000	-0.04647400000000	0.00000000000000	
19.11326300000000	69.70008900000001	765.29812900000002	54.60527200000000	0.33312200000000	0.00000000000000	0.10450300000000	-0.14656800000000	6.94364300000000	0.75324900000000	0.00000000000000	0.00000000000000	0.00000000000000	0.00000000000000	21.36807200000000	0.00000000000000	0.00000000000000	-0.00989400000000	0.00000000000000	
19.11493300000000	69.08920200000000	768.63634500000001	54.89996200000000	0.33233400000000	0.00000000000000	0.10452600000000	0.11459600000000	3.45034300000000	0.43123100000000	0.00000000000000	0.00000000000000	0.00000000000000	0.00000000000000	21.57088800000000	0.00000000000000	0.00000000000000	0.01588400000000	0.00000000000000	
19.11659500000000	68.46988000000000	771.82773599999996	55.19881700000000	0.33156100000000	0.00000000000000	0.10454900000000	0.00000000000000	0.00000000000000	0.00000000000000	0.00000000000000	0.00000000000000	0.00000000000000	0.00000000000000	21.77901500000000	0.00000000000000	0.00000000000000	0.00000000000000	0.00000000000000	
19.11826600000000	67.84280000000000	774.86986500000000	55.50118000000000	0.33080300000000	0.00000000000000	0.10457200000000	0.00000000000000	0.00000000000000	0.00000000000000	0.00000000000000	0.00000000000000	0.00000000000000	0.00000000000000	21.99190800000000	0.00000000000000	0.00000000000000	0.00000000000000	0.00000000000000	
19.11993300000000	67.20860200000000	777.76049000000000	55.80629700000000	0.33005800000000	0.00000000000000	0.10459600000000	0.00000000000000	0.00000000000000	0.00000000000000	0.00000000000000	0.00000000000000	0.00000000000000	0.00000000000000	22.20895800000000	0.00000000000000	0.00000000000000	0.00000000000000	0.00000000000000	
19.12159900000000	66.56788800000000	780.49757899999997	56.11332400000000	0.32932400000000	0.00000000000000	0.10462000000000	0.00000000000000	0.00000000000000	0.00000000000000	0.00000000000000	0.00000000000000	0.00000000000000	0.00000000000000	22.42950100000000	0.00000000000000	0.00000000000000	0.00000000000000	0.00000000000000	
19.12326100000000	65.92122600000000	783.07931599999995	56.42134000000000	0.32859900000000	0.00000000000000	0.10464500000000	0.00000000000000	0.00000000000000	0.00000000000000	0.00000000000000	0.00000000000000	0.00000000000000	0.00000000000000	22.65282400000000	0.00000000000000	0.00000000000000	0.00000000000000	0.00000000000000	
19.12492700000000	65.26915000000000	785.50410799999997	56.72934600000000	0.32788300000000	0.00000000000000	0.10467000000000	0.00000000000000	0.00000000000000	0.00000000000000	0.00000000000000	0.00000000000000	0.00000000000000	0.00000000000000	22.87816600000000	0.00000000000000	0.00000000000000	0.00000000000000	0.00000000000000	
19.12659300000000	64.61216100000000	787.77059799999995	57.03628200000000	0.32717200000000	0.00000000000000	0.10469600000000	0.00000000000000	0.00000000000000	0.00000000000000	0.00000000000000	0.00000000000000	0.00000000000000	0.00000000000000	23.10472500000000	0.00000000000000	0.00000000000000	0.00000000000000	0.00000000000000	
19.12826200000000	63.95073200000000	789.87766599999998	57.34103300000000	0.32646600000000	0.00000000000000	0.10472200000000	0.00000000000000	0.00000000000000	0.00000000000000	0.00000000000000	0.00000000000000	0.00000000000000	0.00000000000000	23.33166700000000	0.00000000000000	0.00000000000000	0.00000000000000	0.00000000000000	
19.12992900000000	63.28530500000000	791.82443799999999	57.64243400000000	0.32576200000000	0.00000000000000	0.10474900000000	0.00000000000000	0.00000000000000	0.00000000000000	0.00000000000000	0.00000000000000	0.00000000000000	0.00000000000000	23.55812800000000	0.00000000000000	0.00000000000000	0.00000000000000	0.00000000000000	
19.13159800000000	62.61630000000000	793.61029299999996	57.93928600000000	0.32505900000000	0.00000000000000	0.10477600000000	0.00000000000000	0.00000000000000	0.00000000000000	0.00000000000000	0.00000000000000	0.00000000000000	0.00000000000000	23.78322300000000	0.00000000000000	0.00000000000000	0.00000000000000	0.00000000000000	
19.13326200000000	61.94410900000000	795.23486000000003	58.23036300000000	0.32435500000000	0.00000000000000	0.10480400000000	0.00000000000000	0.00000000000000	0.00000000000000	0.00000000000000	0.00000000000000	0.00000000000000	0.00000000000000	24.00605000000000	0.00000000000000	0.00000000000000	0.00000000000000	0.00000000000000	
19.13492600000000	61.26910400000000	796.69802800000002	58.51441700000000	0.32364800000000	0.00000000000000	0.10483200000000	0.00000000000000	0.00000000000000	0.00000000000000	0.00000000000000	0.00000000000000	0.00000000000000	0.00000000000000	24.22569700000000	0.00000000000000	0.00000000000000	0.00000000000000	0.00000000000000	
19.13659800000000	60.59163500000000	797.99994600000002	58.79019500000000	0.32293600000000	0.00000000000000	0.10486000000000	0.00000000000000	0.00000000000000	0.00000000000000	0.00000000000000	0.00000000000000	0.00000000000000	0.00000000000000	24.44124800000000	0.00000000000000	0.00000000000000	0.00000000000000	0.00000000000000	
19.13826500000000	59.91203700000000	799.14102100000002	59.05644500000000	0.32221800000000	0.00000000000000	0.10488900000000	0.00000000000000	0.00000000000000	0.00000000000000	0.00000000000000	0.00000000000000	0.00000000000000	0.00000000000000	24.65179200000000	0.00000000000000	0.00000000000000	0.00000000000000	0.00000000000000	
19.13993300000000	59.23062600000000	800.12192200000004	59.31192400000000	0.32149100000000	0.00000000000000	0.10491800000000	0.00000000000000	0.00000000000000	0.00000000000000	0.00000000000000	0.00000000000000	0.00000000000000	0.00000000000000	24.85642400000000	0.00000000000000	0.00000000000000	0.00000000000000	0.00000000000000	
19.14159300000000	58.54770500000000	800.94357800000000	59.55540800000000	0.32075500000000	0.00000000000000	0.10494800000000	0.00000000000000	0.00000000000000	0.00000000000000	0.00000000000000	0.00000000000000	0.00000000000000	0.00000000000000	25.05425500000000	0.00000000000000	0.00000000000000	0.00000000000000	0.00000000000000	
19.14326100000000	57.86356700000000	801.60717499999998	59.78570500000000	0.32000800000000	0.00000000000000	0.10497800000000	0.00000000000000	0.00000000000000	0.00000000000000	0.00000000000000	0.00000000000000	0.00000000000000	0.00000000000000	25.24441900000000	0.00000000000000	0.00000000000000	0.00000000000000	0.00000000000000	
19.14493200000000	57.17849200000000	802.11415599999998	60.00165800000000	0.31924700000000	0.00000000000000	0.10500800000000	0.00000000000000	0.00000000000000	0.00000000000000	0.00000000000000	0.00000000000000	0.00000000000000	0.00000000000000	25.42607300000000	0.00000000000000	0.00000000000000	0.00000000000000	0.00000000000000	
19.14659300000000	56.49275300000000	802.46621500000003	60.20215500000000	0.31847200000000	0.00000000000000	0.10503900000000	0.00000000000000	0.00000000000000	0.00000000000000	0.00000000000000	0.00000000000000	0.00000000000000	0.00000000000000	25.59840900000000	0.00000000000000	0.00000000000000	0.00000000000000	0.00000000000000	
19.14826100000000	55.80661700000000	802.66529300000002	60.38614000000000	0.31768100000000	0.00000000000000	0.10507000000000	0.00000000000000	0.00000000000000	0.00000000000000	0.00000000000000	0.00000000000000	0.00000000000000	0.00000000000000	25.76065500000000	0.00000000000000	0.00000000000000	0.00000000000000	0.00000000000000	
19.14992500000000	55.12034400000000	802.71357599999999	60.55261500000000	0.31687300000000	0.00000000000000	0.10510100000000	0.00000000000000	0.00000000000000	0.00000000000000	0.00000000000000	0.00000000000000	0.00000000000000	0.00000000000000	25.91208100000000	0.00000000000000	0.00000000000000	0.00000000000000	0.00000000000000	
19.15159900000000	54.43419200000000	802.61348299999997	60.70065200000000	0.31604600000000	0.00000000000000	0.10513200000000	0.00000000000000	0.00000000000000	0.00000000000000	0.00000000000000	0.00000000000000	0.00000000000000	0.00000000000000	26.05200700000000	0.00000000000000	0.00000000000000	0.00000000000000	0.00000000000000	
19.15326000000000	53.74841700000000	802.36766799999998	60.82939700000000	0.31520000000000	0.00000000000000	0.10516400000000	0.00000000000000	0.00000000000000	0.00000000000000	0.00000000000000	0.00000000000000	0.00000000000000	0.00000000000000	26.17980100000000	0.00000000000000	0.00000000000000	0.00000000000000	0.00000000000000	
19.15492600000000	53.06327300000000	801.97900300000003	60.93807400000000	0.31433300000000	0.00000000000000	0.10519600000000	0.00000000000000	0.00000000000000	0.00000000000000	0.00000000000000	0.00000000000000	0.00000000000000	0.00000000000000	26.29488700000000	0.00000000000000	0.00000000000000	0.00000000000000	0.00000000000000	
19.15659700000000	52.37901600000000	801.45057799999995	61.02599300000000	0.31344400000000	0.00000000000000	0.10522800000000	0.00000000000000	0.00000000000000	0.00000000000000	0.00000000000000	0.00000000000000	0.00000000000000	0.00000000000000	26.39675100000000	0.00000000000000	0.00000000000000	0.00000000000000	0.00000000000000	
19.15826400000000	51.69590100000000	800.78569000000005	61.09255300000000	0.31253200000000	0.00000000000000	0.10526100000000	0.00000000000000	0.00000000000000	0.00000000000000	0.00000000000000	0.00000000000000	0.00000000000000	0.00000000000000	26.48493700000000	0.00000000000000	0.00000000000000	0.00000000000000	0.00000000000000	
19.15992500000000	51.01418600000000	799.98783200000003	61.13724700000000	0.31159800000000	0.00000000000000	0.10529400000000	0.00000000000000	0.00000000000000	0.00000000000000	0.00000000000000	0.00000000000000	0.00000000000000	0.00000000000000	26.55905600000000	0.00000000000000	0.00000000000000	0.00000000000000	0.00000000000000	
